HIERARCHY
ROOT hip
{
  OFFSET 0 0 0
  CHANNELS 6 Xposition Yposition Zposition Zrotation Yrotation Xrotation
  JOINT abdomen
  {
    OFFSET 0 20.6881 -0.73152
    CHANNELS 3 Zrotation Xrotation Yrotation
    JOINT chest
    {
      OFFSET 0 11.7043 -0.48768
      CHANNELS 3 Zrotation Xrotation Yrotation
      JOINT neck
      {
        OFFSET 0 22.1894 -2.19456
        CHANNELS 3 Zrotation Xrotation Yrotation
        JOINT head
        {
          OFFSET -0.24384 7.07133 1.2192
          CHANNELS 3 Zrotation Xrotation Yrotation
          JOINT leftEye
          {
            OFFSET 4.14528 8.04674 8.04672
            CHANNELS 3 Zrotation Xrotation Yrotation
            End Site
            {
              OFFSET 1 0 0
            }
          }
          JOINT rightEye
          {
            OFFSET -3.6576 8.04674 8.04672
            CHANNELS 3 Zrotation Xrotation Yrotation
            End Site
            {
              OFFSET 1 0 0
            }
          }
        }
      }
      JOINT rCollar
      {
        OFFSET -2.68224 19.2634 -4.8768
        CHANNELS 3 Zrotation Xrotation Yrotation
        JOINT rShldr
        {
          OFFSET -8.77824 -1.95073 1.46304
          CHANNELS 3 Zrotation Xrotation Yrotation
          JOINT rForeArm
          {
            OFFSET -28.1742 -1.7115 0.48768
            CHANNELS 3 Zrotation Xrotation Yrotation
            JOINT rHand
            {
              OFFSET -22.5879 0.773209 7.07136
              CHANNELS 3 Zrotation Xrotation Yrotation
              JOINT rThumb1
              {
                OFFSET -1.2192 -0.487915 3.41376
                CHANNELS 3 Zrotation Xrotation Yrotation
                JOINT rThumb2
                {
                  OFFSET -3.37035 -0.52449 3.41376
                  CHANNELS 3 Zrotation Xrotation Yrotation
                  End Site
                  {
                    OFFSET -1.78271 -1.18214 1.43049
                  }
                }
              }
              JOINT rIndex1
              {
                OFFSET -7.75947 0.938293 5.60832
                CHANNELS 3 Zrotation Xrotation Yrotation
                JOINT rIndex2
                {
                  OFFSET -2.54057 -0.884171 1.56538
                  CHANNELS 3 Zrotation Xrotation Yrotation
                  End Site
                  {
                    OFFSET -1.62519 -0.234802 1.16502
                  }
                }
              }
              JOINT rMid1
              {
                OFFSET -8.24714 1.18213 3.41376
                CHANNELS 3 Zrotation Xrotation Yrotation
                JOINT rMid2
                {
                  OFFSET -3.10165 -0.590103 1.0647
                  CHANNELS 3 Zrotation Xrotation Yrotation
                  End Site
                  {
                    OFFSET -2.48547 -0.328903 0.83742
                  }
                }
              }
              JOINT rRing1
              {
                OFFSET -8.82822 0.546677 1.51678
                CHANNELS 3 Zrotation Xrotation Yrotation
                JOINT rRing2
                {
                  OFFSET -2.60934 -0.819778 -0.0198488
                  CHANNELS 3 Zrotation Xrotation Yrotation
                  End Site
                  {
                    OFFSET -2.33842 -0.294052 0.168128
                  }
                }
              }
              JOINT rPinky1
              {
                OFFSET -8.27202 -0.0477905 -0.4584
                CHANNELS 3 Zrotation Xrotation Yrotation
                JOINT rPinky2
                {
                  OFFSET -1.82734 -0.647385 -0.700984
                  CHANNELS 3 Zrotation Xrotation Yrotation
                  End Site
                  {
                    OFFSET -1.69225 -0.51767 -0.607171
                  }
                }
              }
            }
          }
        }
      }
      JOINT lCollar
      {
        OFFSET 2.68224 19.2634 -4.8768
        CHANNELS 3 Zrotation Xrotation Yrotation
        JOINT lShldr
        {
          OFFSET 8.77824 -1.95073 1.46304
          CHANNELS 3 Zrotation Xrotation Yrotation
          JOINT lForeArm
          {
            OFFSET 28.1742 -1.7115 0.48768
            CHANNELS 3 Zrotation Xrotation Yrotation
            JOINT lHand
            {
              OFFSET 22.5879 0.773209 7.07136
              CHANNELS 3 Zrotation Xrotation Yrotation
              JOINT lThumb1
              {
                OFFSET 1.2192 -0.487915 3.41376
                CHANNELS 3 Zrotation Xrotation Yrotation
                JOINT lThumb2
                {
                  OFFSET 3.37035 -0.52449 3.41376
                  CHANNELS 3 Zrotation Xrotation Yrotation
                  End Site
                  {
                    OFFSET 1.78271 -1.18214 1.43049
                  }
                }
              }
              JOINT lIndex1
              {
                OFFSET 7.75947 0.938293 5.60832
                CHANNELS 3 Zrotation Xrotation Yrotation
                JOINT lIndex2
                {
                  OFFSET 2.54057 -0.884171 1.56538
                  CHANNELS 3 Zrotation Xrotation Yrotation
                  End Site
                  {
                    OFFSET 1.62519 -0.234802 1.16502
                  }
                }
              }
              JOINT lMid1
              {
                OFFSET 8.24714 1.18213 3.41376
                CHANNELS 3 Zrotation Xrotation Yrotation
                JOINT lMid2
                {
                  OFFSET 3.10165 -0.590103 1.0647
                  CHANNELS 3 Zrotation Xrotation Yrotation
                  End Site
                  {
                    OFFSET 2.48547 -0.328903 0.83742
                  }
                }
              }
              JOINT lRing1
              {
                OFFSET 8.82822 0.546677 1.51678
                CHANNELS 3 Zrotation Xrotation Yrotation
                JOINT lRing2
                {
                  OFFSET 2.60934 -0.819778 -0.0198488
                  CHANNELS 3 Zrotation Xrotation Yrotation
                  End Site
                  {
                    OFFSET 2.33842 -0.294052 0.168128
                  }
                }
              }
              JOINT lPinky1
              {
                OFFSET 8.27202 -0.0477905 -0.4584
                CHANNELS 3 Zrotation Xrotation Yrotation
                JOINT lPinky2
                {
                  OFFSET 1.82734 -0.647385 -0.700984
                  CHANNELS 3 Zrotation Xrotation Yrotation
                  End Site
                  {
                    OFFSET 1.69225 -0.51767 -0.607171
                  }
                }
              }
            }
          }
        }
      }
    }
  }
  JOINT rButtock
  {
    OFFSET -8.77824 4.35084 1.2192
    CHANNELS 3 Zrotation Xrotation Yrotation
    JOINT rThigh
    {
      OFFSET 0 -1.70687 -2.19456
      CHANNELS 3 Zrotation Xrotation Yrotation
      JOINT rShin
      {
        OFFSET 0 -36.8199 0.73152
        CHANNELS 3 Zrotation Xrotation Yrotation
        JOINT rFoot
        {
          OFFSET 0.73152 -45.1104 -5.12064
          CHANNELS 3 Zrotation Xrotation Yrotation
          End Site
          {
            OFFSET -1.1221 -3.69964 12.103
          }
        }
      }
    }
  }
  JOINT lButtock
  {
    OFFSET 8.77824 4.35084 1.2192
    CHANNELS 3 Zrotation Xrotation Yrotation
    JOINT lThigh
    {
      OFFSET 0 -1.70687 -2.19456
      CHANNELS 3 Zrotation Xrotation Yrotation
      JOINT lShin
      {
        OFFSET 0 -36.8199 0.73152
        CHANNELS 3 Zrotation Xrotation Yrotation
        JOINT lFoot
        {
          OFFSET -0.73152 -45.1104 -5.12064
          CHANNELS 3 Zrotation Xrotation Yrotation
          End Site
          {
            OFFSET 1.1221 -3.69964 12.103
          }
        }
      }
    }
  }
}
MOTION
Frames:	4
Frame Time:	0.03333
0.21770611964166164 -0.8284339904785156 37.06212315708399 -7.506815046072006 40.19514441490173 -17.50219702720642 -9.803929254412651 12.402205914258957 14.169333726167679 1.750639770179987 -8.8924241065979 1.9015267677605152 -11.264387369155884 19.831324070692062 -22.523882389068604 17.146524041891098 -32.06827104091644 -36.87455892562866 0.5058240098878741 0.22156722843647003 0.6204612040892243 0.6593770394101739 -1.1104623600840569 0.17747833393514156 0.352558521553874 0.34653220558539033 1.1526117660105228 24.43085789680481 -23.30624520778656 47.594870924949646 -4.548275470733643 8.795017004013062 -9.529228806495667 0.4343809001147747 58.055362701416016 17.772088944911957 -0.732625862583518 0.6841508857905865 0.07630448788404465 0.5310307815670967 -0.337893501855433 -0.25313003920018673 0.025049312389455736 -0.626846244558692 -1.1371433828026056 7.900899276137352 5.876922458410263 -0.14830637723207474 -0.5290650576353073 -0.28104267781600356 0.13540759216994047 3.1729667633771896 0.6667177006602287 0.28323481790721416 -0.5815884936600924 0.005338937044143677 1.2806763499975204 9.645359069108963 0.8372084610164165 0.016772691160440445 1.0464953631162643 1.1571390833705664 0.04376376047730446 0.4972921125590801 -0.3860516846179962 -0.9035825729370117 -0.187718840315938 -0.16140347812324762 -0.013335393159650266 -112.923424243927 35.40689170360565 71.2022477388382 25.193337500095367 -37.19492733478546 -75.77420711517334 3.9591440185904503 -54.1711699962616 3.4539999067783356 -0.3443749970756471 0.9194212686270475 -0.8247306570410728 0.5858618393540382 0.30033926479518414 1.4814574643969536 0.800371840596199 0.2976148738525808 1.0757927969098091 -6.860378533601761 5.1075562834739685 -1.2883433606475592 1.0434697475284338 -0.17948311753571033 0.10615143924951553 -3.3032379671931267 2.1555125154554844 -1.5496487729251385 2.4501892179250717 0.20806767046451569 -0.6773297348991036 -10.45922577381134 1.4267370477318764 0.235579339787364 1.55787980183959 -0.13650780078023672 -0.3263406828045845 -2.3393720760941505 -1.3183315470814705 1.52449619024992 -0.8354332577437162 -0.30963911209255457 0.22692544385790825 0.16419142484664917 -6.643975228071213 0.03558620810508728 -9.140768498182297 58.365479707717896 6.209441274404526 -13.743196427822113 -11.312192380428314 -33.08503746986389 -2.16974213719368 -0.17545376904308796 -0.571050220169127 -13.779797852039337 -60.399709939956665 -21.241920590400696 10.08812740445137 62.42575407028198 -26.92788988351822 1.5072579681873322 -10.830802917480469 11.458616852760315
0.14000682346522808 -0.41270899772644043 37.84015689045191 -6.151154190301895 33.416628241539 -9.811629205942154 -9.838438555598259 13.707341998815536 13.816419392824173 1.6323330625891685 -9.215527027845383 1.811286024749279 -10.53212083876133 18.99169608950615 -20.530707389116287 15.708839893341064 -31.883525848388672 -33.26581299304962 0.40296485647559166 0.35930369049310684 0.48425066750496626 0.707950796931982 -1.1156544461846352 -0.04303555120714009 0.25273256935179234 0.3664355166256428 0.9201537631452084 27.788302302360535 -27.28527545928955 41.502217054367065 -5.0974202156066895 6.971742510795593 -7.046560049057007 1.0911419056355953 56.57957911491394 19.764389544725418 -0.6225451547652483 0.6767638307064772 0.20753541961312294 0.593276135623455 -0.24785819929093122 -0.39693227503448725 -0.02073188836220652 -0.7207163516432047 -1.1363766063004732 8.08904618024826 5.913394466042519 -0.15825971961021423 -0.5473465751856565 -0.22999795619398355 0.3202773816883564 3.303217850625515 0.7081162557005882 0.22368659265339375 -0.648973798379302 -0.017107129096984863 1.3246516697108746 9.699747562408447 0.5859596561640501 0.04145186394453049 1.0524584166705608 1.2971206381917 0.2557638008147478 0.5518239364027977 -0.4015079140663147 -1.1114239320158958 -0.12432851828634739 -0.19548915792256594 0.2091768686659634 -111.9096565246582 33.47032606601715 69.26025867462158 24.90671932697296 -35.44384449720383 -74.39164638519287 3.5809780284762383 -53.949989676475525 2.9326535761356354 -0.3685532044619322 0.8866333588957787 -0.8937914203852415 0.5909635685384274 0.4355816077440977 1.6185230389237404 0.40826842188835144 0.2996077132411301 1.1820013169199228 -6.9389887154102325 5.124591663479805 -1.18081527762115 0.8368807286024094 -0.5650444608181715 0.10397834703326225 -3.4859248995780945 2.178236525505781 -1.3981458730995655 2.7167974412441254 0.0748253334313631 -0.94893554225564 -10.495755448937416 1.5392488427460194 0.359163461253047 1.6237959265708923 -0.13657728675752878 -0.3356269095093012 -2.3904254101216793 -1.2957699783146381 1.5049311518669128 -0.856785150244832 -0.477462038397789 0.08001616224646568 -4.8758697509765625 -8.500678092241287 -3.1031347811222076 -18.253439515829086 60.484886169433594 19.64629054069519 -12.14975506067276 -10.865697786211967 -30.35935789346695 -2.129236087203026 -0.22805767133831978 -0.4723108559846878 -7.3389288783073425 -58.856130838394165 -14.048571288585663 7.611324638128281 63.404964208602905 -27.730371952056885 1.9617019593715668 -9.65981349349022 13.197372257709503
0.01847064308822155 0.13793055713176727 38.6246395483613 -2.491639405488968 26.441683173179626 3.1128859519958496 -8.225911259651184 14.433948397636414 13.542686551809311 0.5552019271999598 -9.01532493531704 2.9955755174160004 -9.101856350898743 18.407898545265198 -19.388176202774048 14.008842408657074 -32.14760273694992 -32.56071388721466 0.1260795397683978 0.5376717634499073 0.26722236536443233 0.8716823905706406 -0.6931209051981568 0.057043785927817225 0.04242332652211189 0.21267090691253543 0.45861801132559776 27.257291972637177 -37.172863483428955 45.45619547367096 -4.4427573680877686 7.295753359794617 -9.156492948532104 3.973728194832802 53.416117429733276 19.706477969884872 -0.36929357796907425 0.7084744144231081 0.6749138608574867 0.5417839251458645 -0.7446142472326756 -0.5823965510353446 -0.10422988794744015 -0.7131625805050135 -0.7587567809969187 8.238012716174126 5.7722968608140945 -0.20099208690226078 -0.6747366674244404 0.11670664418488741 -0.030825580470263958 3.5597768425941467 0.9500532690435648 -0.03255941905081272 -0.3266843408346176 -0.24068249389529228 1.1629632487893105 9.636137634515762 0.9771165065467358 0.23538127541542053 1.0994109883904457 1.287181880325079 0.5212950333952904 0.8203214406967163 -0.5347193637862802 -1.4140954613685608 -0.39081595838069916 0.01981486100703478 0.1924092066474259 -117.82783269882202 32.93178677558899 80.05668103694916 25.685343146324158 -34.21985864639282 -72.12809801101685 2.191530726850033 -60.81856369972229 2.0906838588416576 -0.17615338554605842 0.7089416217058897 -0.3145954990759492 0.32651999266818166 0.5604120343923569 1.0002192109823227 0.03630487248301506 0.11492500780150294 1.1692415457218885 -7.175955846905708 5.365940183401108 -1.13196755759418 0.5972935818135738 -0.7964602578431368 -0.09890084154903889 -3.7857388705015182 2.4225064739584923 -1.0624625533819199 2.3112819716334343 -0.09288586210459471 -0.9452066011726856 -10.530179589986801 1.634607408195734 0.5215827003121376 1.5067443251609802 -0.05825825035572052 -0.3889773041009903 -2.6782547682523727 -1.3234910275787115 1.2003089860081673 -0.8976985607296228 -0.628892770037055 -0.5298318341374397 -1.524990051984787 -9.799199849367142 -2.121253162622452 -33.900654315948486 60.67290902137756 44.09979164600372 -12.505756616592407 -11.13366186618805 -30.124256908893585 -2.0756515860557556 -0.15517220366746187 -0.26635115034878254 -0.7405310869216919 -58.40488135814667 -8.556928038597107 10.539457350969315 66.36928796768188 -20.89068666100502 1.3133211806416512 -7.161116525530815 10.490903332829475
-0.05496952868998051 0.9667413234710693 39.58138547092676 14.7834013402462 21.54471918940544 23.10823380947113 -6.1286987364292145 15.158755034208298 12.134859412908554 0.5110624898225069 -8.593214303255081 3.8805878162384033 -7.510131597518921 17.944824546575546 -18.334089517593384 13.835748732089996 -31.928246319293976 -33.04614007472992 -0.2399015100672841 0.4643307812511921 0.31234588008373976 1.1615066416561604 -0.2836152305826545 -0.1853475160896778 -0.18329361453652382 0.05043041193857789 0.028373664245009422 30.43265461921692 -44.70967769622803 48.922494649887085 -4.261268377304077 8.817054033279419 -12.146345973014832 7.296582832932472 51.58401846885681 17.976260036230087 -0.15707114478573203 0.5972703639417887 0.9286695253103971 0.42055520229041576 -1.2516511604189873 -0.959084015339613 -0.2279208367690444 -0.5156755540519953 -0.23468482308089733 8.429755792021751 5.4869986698031425 -0.28999658301472664 -0.7993430458009243 0.5518958950415254 -0.027752858586609364 3.9238836988806725 1.1308297980576754 -0.3735570749267936 0.13854648917913437 -0.4336049035191536 0.7247534953057766 9.642314091324806 1.1779588088393211 0.30135925859212875 0.871240496635437 1.2428820133209229 0.9917170275002718 1.0734515637159348 -0.6344250356778502 -1.030437983572483 -0.8340773172676563 0.061097536236047745 0.35594506189227104 -113.48934888839722 37.22213834524155 75.78067123889923 26.302232444286346 -33.58447551727295 -71.31619334220886 0.452124928124249 -65.90587735176086 3.2594498991966248 -0.04789377562701702 0.37784362211823463 0.269011608324945 0.056550458539277315 0.573670445010066 0.1674281805753708 -0.5016827210783958 0.09490378433838487 1.1523526813834906 -7.454841881990433 5.7600237429142 -0.877507645636797 0.6629542261362076 -0.7509746868163347 -0.27195038739591837 -3.9175409451127052 2.636962663382292 -0.5662525864318013 1.03596031665802 -0.3249835269525647 -0.970724131911993 -10.569562464952469 1.3582951202988625 0.6221038475632668 1.3562066853046417 0.1511450344696641 -0.2872215863317251 -2.8093274496495724 -1.350796753540635 0.7852643821388483 -0.9947071876376867 -0.7322778459638357 -1.1879939585924149 -2.8326675295829773 -16.58318504691124 -6.121278405189514 -64.70350742340088 64.29389119148254 84.61219310760498 -11.415849030017853 -11.79244190454483 -28.635569214820862 -2.1256176196038723 -0.07103264797478914 0.054959007538855076 3.566482365131378 -57.21805214881897 -7.838173806667328 9.83040601015091 71.23188614845276 -13.476625084877014 0.5978922173380852 -4.4093819707632065 9.01726819574833
